<?xml version="1.0" encoding="utf-8"?>
<!-- Generator: Adobe Illustrator 14.0.0, SVG Export Plug-In . SVG Version: 6.00 Build 43363)  -->
<!DOCTYPE svg PUBLIC "-//W3C//DTD SVG 1.1//EN" "http://www.w3.org/Graphics/SVG/1.1/DTD/svg11.dtd">
<svg version="1.1" id="Layer_1" xmlns="http://www.w3.org/2000/svg" xmlns:xlink="http://www.w3.org/1999/xlink" x="0px" y="0px"
	 width="419.574px" height="118.199px" viewBox="104.016 0 419.574 118.199" enable-background="new 104.016 0 419.574 118.199"
	 xml:space="preserve">
<path fill="#646464" d="M223.9,46.171l0.001-0.005l-3.352,11.88L223.9,46.171L223.9,46.171z"/>
<path fill="#646464" d="M241.14,71.962l-3.694-0.022L241.14,71.962z"/>
<path fill="#646464" d="M240.19,89.703h0.004l-22.131,0.08L240.19,89.703L240.19,89.703z"/>
<path fill="#646464" d="M244.83,71.984l-3.695-0.022L244.83,71.984z"/>
<path fill="#646464" d="M242.13,88.195l3.855-14.702l-3.855,14.705V88.195L242.13,88.195z"/>
<path fill="#646464" d="M323.609,20.49l-7.181,33.76L323.609,20.49z"/>
<path fill="#646464" d="M305.15,20.49l-5.452,25.22l5.452-25.222V20.49z"/>
<path fill="#646464" d="M322.38,18.971h-15.356c-0.852,0-1.697,0.684-1.879,1.516l-5.452,25.222l-5.452,25.223
	c-0.18,0.832-1.025,1.514-1.877,1.514h-9.317h-1.552c-10.753,0-9.51-7.438-7.307-17.627c0.021-0.103,0.044-0.203,0.065-0.308
	l0.241-1.284c0.016-0.083,0.032-0.166,0.046-0.242l0.491-2.615l0.525-2.803c0.16-0.845,0.402-2.08,0.562-2.856l2.478-12.109
	l2.48-12.109c0.172-0.835-0.388-1.521-1.24-1.521h-15.762c-0.852,0-1.695,0.686-1.87,1.519l-3.389,16.079l-3.389,16.077
	c-0.003,0.007-0.004,0.017-0.005,0.024l-0.315,1.494c-3.904,17.822-2.869,34.817,18.347,35.349c0.347,0.01,0.615,0.012,0.615,0.012
	h33.302c0.853,0,1.695-0.684,1.874-1.518l7.182-33.757l7.181-33.76C323.785,19.655,323.232,18.972,322.38,18.971L322.38,18.971z"/>
<path fill="#646464" d="M383.641,72.621c0.853,0,1.41,0.684,1.24,1.519l-1.492,7.288"/>
<path fill="#646464" d="M381.9,88.719l1.49-7.292l-1.492,7.294C381.898,88.719,381.9,88.719,381.9,88.719L381.9,88.719z"/>
<path fill="#646464" d="M380.029,90.253c0.003,0,0.006-0.002,0.008-0.002c-4.52,0.036-18.1,0.14-28.307,0.14
	C364.152,90.391,380.029,90.254,380.029,90.253L380.029,90.253z"/>
<path fill="#646464" d="M342.57,63.234c-0.013-0.798,0.896-2.173,1.749-2.173l-1.918-0.032
	C341.537,69.721,342.57,63.234,342.57,63.234L342.57,63.234z"/>
<path fill="#646464" d="M353.13,90.387c-0.098,0-0.198,0-0.296,0.002C352.932,90.387,353.032,90.387,353.13,90.387z"/>
<path fill="#646464" d="M383.641,72.621c0.853,0,1.41,0.684,1.24,1.519l-1.492,7.288l-0.243,1.188"/>
<path fill="#646464" d="M360.4,90.37h-0.063H360.4z"/>
<path fill="#646464" d="M356.63,90.382h-0.218H356.63z"/>
<path fill="#646464" d="M355.48,90.385c-0.123,0-0.242,0-0.361,0.002C355.238,90.385,355.357,90.385,355.48,90.385z"/>
<path fill="#646464" d="M354.311,90.387h-0.318H354.311z"/>
<path fill="#646464" d="M356.41,90.382c-0.312,0-0.623,0.002-0.93,0.002C355.787,90.384,356.099,90.382,356.41,90.382z"/>
<path fill="#646464" d="M360.34,90.37c-1.242,0.005-2.482,0.01-3.705,0.013C357.857,90.381,359.099,90.375,360.34,90.37z"/>
<path fill="#646464" d="M380.04,90.25L380.04,90.25c-3.312,0.027-11.489,0.088-19.646,0.119
	C368.547,90.34,376.727,90.277,380.04,90.25z"/>
<path fill="#646464" d="M381.9,88.723l1.248-6.106l-1.25,6.11C381.898,88.725,381.9,88.725,381.9,88.723L381.9,88.723z"/>
<path fill="#646464" d="M355.12,90.387h-0.811H355.12z"/>
<path fill="#646464" d="M352.83,90.389h-1.096H352.83z"/>
<path fill="#646464" d="M353.99,90.387h-0.864H353.99z"/>
<path fill="#646464" d="M129.36,63.417l2.385-10.574l-2.727,12.087l-2.617,12.313l2.294-10.793
	C128.872,65.614,129.172,64.25,129.36,63.417L129.36,63.417z"/>
<path fill="#646464" d="M157.91,18.793h-16.864c-0.853,0-1.704,0.681-1.895,1.511l-1.599,7.058l-1.599,7.061
	c-0.188,0.83,0.355,1.511,1.208,1.511h16.995c0.852,0,1.699-0.681,1.882-1.514l1.545-7.058l1.545-7.053v-0.002
	C159.312,19.475,158.764,18.793,157.91,18.793L157.91,18.793z"/>
<path fill="#646464" d="M154.24,42.272V42.27l-4.946,22.882L154.24,42.272z"/>
<path fill="#646464" d="M105.25,118.09c0,0,8.501,0.109,13.905,0.109c-4.105,0-10.885-0.075-13.912-0.111
	C105.246,118.088,105.248,118.09,105.25,118.09L105.25,118.09z"/>
<path fill="#646464" d="M134.13,42.269l-2.388,10.574L134.13,42.269z"/>
<path fill="#646464" d="M153.02,40.756h-16.997c-0.852,0-1.704,0.681-1.892,1.514l-2.388,10.574l-2.385,10.574
	c-0.188,0.833-0.488,2.198-0.665,3.032l-2.294,10.794l-2.292,10.793c-0.178,0.832-0.544,2.178-0.818,2.985
	c0,0-3.175,9.448-8.513,9.341c-0.227-0.005-0.448-0.007-0.667-0.013c-2.586-0.049-4.619-0.085-4.619-0.085h-0.004
	c-0.851-0.013-1.707,0.651-1.905,1.479l-1.763,7.41l-1.761,7.406c-0.198,0.828,0.337,1.512,1.184,1.526
	c3.028,0.036,9.807,0.112,13.912,0.112c13.334,0,20.363-7.388,24.869-28.646l5.273-24.4l4.946-22.882
	C154.421,41.438,153.871,40.756,153.02,40.756L153.02,40.756z"/>
<path fill="#646464" d="M394.471,89.525c-0.853,0-1.406-0.684-1.227-1.52l12.786-59.89"/>
<path fill="#646464" d="M412.24,88.004l5.171-25.562L412.24,88.004z"/>
<path fill="#646464" d="M393.43,88.766c-0.104-0.417-0.043-1.439,0.139-2.275l6.067-28.428l-6.393,29.944
	c-0.179,0.835,0.374,1.519,1.226,1.519h1.553C395.168,89.525,393.533,89.184,393.43,88.766L393.43,88.766z"/>
<path fill="#646464" d="M411.23,89.184c-0.464,0.188-1.543,0.342-2.396,0.342h1.553c0.852,0,1.689-0.684,1.857-1.521l0.308-1.519
	C412.383,87.32,411.695,88.995,411.23,89.184L411.23,89.184z"/>
<path fill="#646464" d="M414.83,75.223l2.282-11.282c-0.001,0.007-0.002,0.017-0.004,0.022L414.83,75.223L414.83,75.223z"/>
<path fill="#646464" d="M465.28,32.128l0.704,2.91c0.194,0.833-0.345,1.509-1.195,1.511"/>
<path fill="#646464" d="M412.55,86.486l2.276-11.262L412.55,86.486z"/>
<path fill="#646464" d="M464.58,29.147l0.697,2.981L464.58,29.147z"/>
<path fill="#646464" d="M417.11,63.942c0.169-0.835,0.45-2.188,0.627-3.015l2.438-11.421l-2.761,12.937L417.11,63.942L417.11,63.942
	z"/>
<path fill="#646464" d="M406.24,27.135c-0.17,0.806-0.387,1.824-0.531,2.498l-6.068,28.43l6.393-29.946L406.24,27.135L406.24,27.135
	z"/>
<path fill="#646464" d="M465.98,35.038l-0.705-2.91l-0.696-2.981l-0.354-1.509c-1.38-5.364-5.434-8.459-14.232-8.459l-13.7-0.015
	l-12.617-0.015h-1.083h-13.113c-0.853,0-1.696,0.681-1.872,1.516h-0.001l-0.627,2.966l-0.741,3.503l-0.206,0.981l-6.393,29.946
	l-6.068,28.428c-0.181,0.836-0.241,1.858-0.138,2.275c0.102,0.418,1.738,0.76,2.592,0.76h12.808c0.853,0,1.932-0.154,2.396-0.342
	c0.466-0.188,1.152-1.863,1.322-2.697l2.276-11.263l2.279-11.26c0.001-0.005,0.002-0.015,0.004-0.022l0.304-1.499l2.762-12.937
	l2.438-11.426c0.181-0.83,1.021-1.509,1.872-1.511l40.3-0.02C465.637,36.547,466.175,35.87,465.98,35.038L465.98,35.038z"/>
<path fill="#646464" d="M517.86,8.725c-0.854,0.006-2.249,0.011-3.103,0.011h-12.898c-0.854,0-1.946,0.576-2.427,1.28
	l-28.523,41.787c-0.482,0.706-1.031,0.601-1.221-0.229l-2.099-9.207c-0.188-0.833-1.043-1.511-1.896-1.511h-18.337
	c-0.854,0-1.358,0.669-1.125,1.489l8.216,28.784c0.234,0.82,0.252,2.168,0.041,2.994l-3.582,13.931
	c-0.212,0.827,0.313,1.504,1.166,1.504h18.123c0.852,0,1.724-0.677,1.935-1.504l3.583-13.931c0.211-0.826,0.805-2.061,1.318-2.742
	l46.306-61.459c0.515-0.681,0.236-1.235-0.616-1.229L517.86,8.725L517.86,8.725z"/>
<path fill="#646464" d="M372.18,44.774v-0.017c-0.107,0.925-0.961,1.604-1.813,1.604h-23.248c-0.804,0-1.212-0.547-1.094-1.221
	c0.007-0.02,0.01-0.037,0.022-0.054c0,0-0.008,0.002-0.016,0.007c0.006-0.027,0.006-0.051,0.014-0.078c0,0,0.043-0.164,0.105-0.396
	c2.221-5.903,6.743-9.778,15.243-9.778C370.963,34.842,372.83,39.518,372.18,44.774L372.18,44.774z M365.359,17.94
	c-29.84,0-36.912,18.113-40.879,36.394c-3.967,18.633-3.625,36.055,27.254,36.055h1.096c0.098-0.002,0.197-0.002,0.295-0.002h0.865
	h0.316h0.811c0.12-0.002,0.24-0.002,0.361-0.002c0.309,0,0.619-0.002,0.931-0.002h0.219c1.222-0.002,2.462-0.008,3.704-0.012h0.063
	c8.156-0.032,16.334-0.094,19.647-0.12c0.847-0.013,1.676-0.696,1.851-1.523l1.25-6.11l0.242-1.189l1.492-7.287
	c0.171-0.836-0.387-1.52-1.24-1.52h-27.761c-11.041,0-14.32-2.934-13.112-11.56h44.377l-0.004,0.005
	c0.012,0,0.021-0.005,0.031-0.005c0.705-0.013,1.357-0.498,1.615-1.145c0.049-0.125,0.091-0.254,0.107-0.388l-0.005,0.005
	c6.589-24.854,4.7-41.592-23.528-41.592L365.359,17.94z"/>
<path fill="#646464" d="M224.32,44.679l-0.42,1.487c0,0.005-0.001,0.005-0.001,0.005l-3.351,11.875l-3.35,11.873
	c-0.232,0.82-1.118,1.491-1.973,1.491H197.49c-13.453,0-16.729-10.521-13.453-26.042c3.275-15.874,9.697-25.742,22.938-26.741
	C225.069,17.263,228.689,29.989,224.32,44.679L224.32,44.679z M236.483,70.497c0,0,8.362-20.303,10.261-32.031
	C249.334,22.767,241.474,0,211.114,0c-30.187,0-43.295,21.737-48.297,45.367c-5.001,23.801,1.552,44.675,31.567,44.504l23.679-0.088
	l22.131-0.08c0.852-0.008,1.724-0.684,1.941-1.507l3.855-14.705c0.215-0.825-0.306-1.504-1.158-1.509l-3.695-0.021l-3.694-0.022
	c-0.725-0.005-1.14-0.474-1.052-1.097c0.016-0.111,0.042-0.227,0.09-0.346L236.483,70.497z"/>
<path fill="#646464" d="M385.92,56.908c0,0.562-0.455,1.018-1.018,1.018s-1.019-0.457-1.019-1.018s0.456-1.016,1.019-1.016
	S385.92,56.347,385.92,56.908z"/>
</svg>
