<?xml version="1.0" encoding="utf-8"?>
<!-- Generator: Adobe Illustrator 14.0.0, SVG Export Plug-In . SVG Version: 6.00 Build 43363)  -->
<!DOCTYPE svg PUBLIC "-//W3C//DTD SVG 1.1//EN" "http://www.w3.org/Graphics/SVG/1.1/DTD/svg11.dtd">
<svg version="1.1" id="Layer_1" xmlns="http://www.w3.org/2000/svg" xmlns:xlink="http://www.w3.org/1999/xlink" x="0px" y="0px"
	 width="512px" height="512px" viewBox="0 0 512 512" enable-background="new 0 0 512 512" xml:space="preserve">
<path fill="#404040" d="M256,0C114.615,0,0,114.615,0,256s114.615,256,256,256c141.385,0,256-114.615,256-256S397.385,0,256,0z
	 M256,504C119.033,504,8,392.967,8,256S119.033,8,256,8s248,111.033,248,248S392.967,504,256,504z"/>
<polygon display="none" fill="#404040" points="192,104 168,104 320,256 168,408 192,408 344,256 "/>
<polygon display="none" fill="#404040" points="420,174 396,174 256,314 116,174 92,174 256,338 "/>
<polygon fill="#404040" points="404,120 380,120 256,244 132,120 108,120 244,256 108,392 132,392 256,268 380,392 404,392 268,256 
	"/>
<polygon display="none" fill="#404040" points="432,168 384,168 256,296 128,168 80,168 256,344 "/>
</svg>
